<svg aria-hidden="true" style="position: absolute; width: 0; height: 0; overflow: hidden;" version="1.1" xmlns="http://www.w3.org/2000/svg" xmlns:xlink="http://www.w3.org/1999/xlink">
<defs>
<symbol id="icon-antenna1" viewBox="0 0 32 32">
<title>antenna1</title>
<path fill="#2e2f42" style="fill: var(--color1, #2e2f42)" d="M30.773 22.098l-8.443-8.505 0.937-4.615c0.242 0.094 0.499 0.144 0.758 0.146h0.006c1.192 0.014 2.17-0.941 2.184-2.133s-0.941-2.17-2.133-2.184c-1.192-0.014-2.17 0.941-2.184 2.133-0.003 0.255 0.039 0.509 0.125 0.749l-4.96 0.605-8.091-8.133c-0.099-0.101-0.235-0.159-0.377-0.16-0.14 0.001-0.274 0.056-0.373 0.155l-1.513 1.504c-0.208 0.208-0.208 0.546 0 0.754l0.814 0.826c-3.153 5.798-2.129 12.978 2.519 17.663 0.043 0.041 0.092 0.074 0.146 0.098-0.034 0.18-0.051 0.364-0.052 0.547v6.187h-6.4c-1.472 0.002-2.665 1.195-2.667 2.667v1.067c0 0.295 0.239 0.533 0.533 0.533h24.533c0.295 0 0.533-0.239 0.533-0.533v-1.067c-0.002-1.472-1.195-2.665-2.667-2.667h-6.4v-2.742c1.003 0.21 2.024 0.317 3.049 0.32 2.458-0.003 4.877-0.615 7.040-1.783l0.818 0.823c0.099 0.101 0.235 0.159 0.377 0.16 0.14-0.001 0.274-0.056 0.373-0.155l1.513-1.504c0.208-0.208 0.208-0.546 0-0.754zM23.28 6.233c0.418-0.415 1.093-0.414 1.509 0.004s0.414 1.093-0.004 1.508c-0.2 0.199-0.47 0.31-0.752 0.31h-0.003c-0.589-0.003-1.064-0.483-1.061-1.072 0.002-0.282 0.115-0.552 0.314-0.751h-0.002zM22.024 9.738l-0.598 2.946-1.175-1.182 1.774-1.763zM21.419 8.836l-1.92 1.909-1.485-1.493 3.405-0.415zM24.004 28.8c0.884 0 1.6 0.716 1.6 1.6v0.533h-23.467v-0.533c0-0.884 0.716-1.6 1.6-1.6h20.267zM16.537 26.667v1.067h-5.333v-1.067h5.333zM11.204 25.6v-4.053c0-1.294 1.196-2.347 2.667-2.347s2.667 1.053 2.667 2.347v4.053h-5.333zM17.604 23.904v-2.357c0-1.882-1.675-3.413-3.733-3.413-1.331-0.020-2.576 0.657-3.281 1.786-4.058-4.274-4.971-10.645-2.279-15.887l18.602 18.708c-2.872 1.461-6.165 1.873-9.309 1.163zM28.893 23.22l-21.057-21.181 0.755-0.752 7.935 7.98c0.004 0 0.006 0.007 0.010 0.010l13.115 13.191-0.757 0.752z"></path>
<path fill="#4d5ae5" style="fill: var(--color2, #4d5ae5)" d="M13.876 20.267h-0.005c-0.884-0.001-1.601 0.714-1.602 1.598s0.714 1.601 1.598 1.602h0.005c0.884 0.001 1.601-0.714 1.602-1.598s-0.714-1.601-1.598-1.602zM14.249 22.245c-0.1 0.1-0.236 0.156-0.378 0.155-0.295-0.002-0.532-0.242-0.531-0.536 0.001-0.141 0.057-0.276 0.157-0.375s0.233-0.154 0.373-0.155c0.295 0.002 0.532 0.242 0.531 0.536-0.001 0.141-0.057 0.276-0.157 0.375h0.005z"></path>
</symbol>
<symbol id="icon-astronaut1" viewBox="0 0 32 32">
<title>astronaut1</title>
<path fill="#4d5ae5" style="fill: var(--color2, #4d5ae5)" d="M31.974 4.524c-0.063-0.193-0.229-0.333-0.43-0.363l-1.91-0.278-0.855-1.731c-0.179-0.365-0.777-0.365-0.956 0l-0.855 1.731-1.91 0.278c-0.201 0.029-0.367 0.17-0.431 0.363-0.062 0.193-0.011 0.405 0.135 0.547l1.383 1.348-0.326 1.903c-0.034 0.2 0.048 0.402 0.212 0.522 0.166 0.121 0.382 0.135 0.562 0.040l1.709-0.899 1.709 0.899c0.078 0.041 0.164 0.061 0.249 0.061 0.11 0 0.221-0.034 0.314-0.102 0.164-0.119 0.246-0.322 0.212-0.522l-0.326-1.903 1.383-1.348c0.145-0.142 0.197-0.354 0.135-0.547zM29.511 5.851c-0.125 0.122-0.183 0.299-0.153 0.472l0.191 1.114-1-0.526c-0.078-0.041-0.163-0.061-0.249-0.061s-0.17 0.020-0.249 0.061l-1.001 0.526 0.191-1.114c0.030-0.173-0.028-0.349-0.153-0.472l-0.81-0.789 1.119-0.163c0.174-0.025 0.324-0.134 0.402-0.292l0.5-1.013 0.5 1.013c0.078 0.157 0.228 0.267 0.402 0.292l1.119 0.163-0.809 0.789z"></path>
<path fill="#4d5ae5" style="fill: var(--color2, #4d5ae5)" d="M26.134 20.522h-1.067v1.067h1.067v-1.067z"></path>
<path fill="#4d5ae5" style="fill: var(--color2, #4d5ae5)" d="M26.134 22.656h-1.067v1.067h1.067v-1.067z"></path>
<path fill="#4d5ae5" style="fill: var(--color2, #4d5ae5)" d="M27.2 21.589h-1.067v1.067h1.067v-1.067z"></path>
<path fill="#4d5ae5" style="fill: var(--color2, #4d5ae5)" d="M25.067 21.589h-1.067v1.067h1.067v-1.067z"></path>
<path fill="#4d5ae5" style="fill: var(--color2, #4d5ae5)" d="M22.4 26.389h-1.067v1.067h1.067v-1.067z"></path>
<path fill="#4d5ae5" style="fill: var(--color2, #4d5ae5)" d="M22.4 28.522h-1.067v1.067h1.067v-1.067z"></path>
<path fill="#4d5ae5" style="fill: var(--color2, #4d5ae5)" d="M23.467 27.456h-1.067v1.067h1.067v-1.067z"></path>
<path fill="#4d5ae5" style="fill: var(--color2, #4d5ae5)" d="M21.333 27.456h-1.067v1.067h1.067v-1.067z"></path>
<path fill="#4d5ae5" style="fill: var(--color2, #4d5ae5)" d="M16 24.256h-1.067v1.067h1.067v-1.067z"></path>
<path fill="#4d5ae5" style="fill: var(--color2, #4d5ae5)" d="M16 26.389h-1.067v1.067h1.067v-1.067z"></path>
<path fill="#4d5ae5" style="fill: var(--color2, #4d5ae5)" d="M17.067 25.322h-1.067v1.067h1.067v-1.067z"></path>
<path fill="#4d5ae5" style="fill: var(--color2, #4d5ae5)" d="M14.933 25.322h-1.067v1.067h1.067v-1.067z"></path>
<path fill="#4d5ae5" style="fill: var(--color2, #4d5ae5)" d="M5.867 6.122h-1.067v1.067h1.067v-1.067z"></path>
<path fill="#4d5ae5" style="fill: var(--color2, #4d5ae5)" d="M5.867 8.255h-1.067v1.067h1.067v-1.067z"></path>
<path fill="#4d5ae5" style="fill: var(--color2, #4d5ae5)" d="M6.933 7.189h-1.067v1.067h1.067v-1.067z"></path>
<path fill="#4d5ae5" style="fill: var(--color2, #4d5ae5)" d="M4.8 7.189h-1.067v1.067h1.067v-1.067z"></path>
<path fill="#2e2f42" style="fill: var(--color1, #2e2f42)" d="M24.715 14.159c-0.287-0.388-0.709-0.637-1.188-0.705-0.481-0.068-0.956 0.058-1.34 0.352l-1.252 0.96-1.898 1.417-1.358-0.541c2.421-1.086 4.114-3.508 4.114-6.32 0-3.823-3.123-6.933-6.961-6.933s-6.961 3.11-6.961 6.933c0 1.386 0.414 2.674 1.12 3.758l-2.764-0.024c-0.002 0-0.003 0-0.005 0-0.009 0-0.015 0.004-0.023 0.005-0.053 0.002-0.105 0.013-0.155 0.031-0.013 0.005-0.026 0.008-0.038 0.013-0.006 0.003-0.013 0.003-0.019 0.006l-3.233 1.596c-0.001 0-0.001 0-0.001 0.001l-1.893 0.911c-0.021 0.009-0.042 0.021-0.063 0.035-0.755 0.502-1.012 1.489-0.598 2.295 0.22 0.429 0.595 0.745 1.056 0.889 0.178 0.055 0.359 0.083 0.539 0.083 0.29 0 0.577-0.071 0.839-0.211l1.388-0.738 2.264-1.169 1.357-0.008-5.442 5.416c-0.001 0.001-0.001 0.001-0.002 0.001l-1.339 1.333c-0.316 0.315-0.49 0.732-0.49 1.178s0.174 0.863 0.49 1.179c0.325 0.323 0.752 0.485 1.179 0.485s0.854-0.162 1.18-0.485l1.314-1.309 1.741-1.3 0.901 0.897-1.762 1.754c-0 0.001-0.001 0.001-0.002 0.001l-1.339 1.333c-0.316 0.315-0.49 0.732-0.49 1.178s0.174 0.863 0.49 1.179c0.325 0.323 0.753 0.485 1.18 0.485s0.855-0.162 1.18-0.485l3.482-3.467c0.001-0.001 0.001-0.001 0.001-0.002l1.010-1-0.004-0.004c0.006-0.006 0.015-0.009 0.022-0.015l5.166-5.658 3.471 0.494c0.025 0.004 0.050 0.005 0.075 0.005 0.065 0 0.127-0.015 0.187-0.038 0.018-0.006 0.033-0.015 0.050-0.023 0.019-0.010 0.039-0.015 0.058-0.027l3.213-2.133c0.012-0.008 0.018-0.021 0.029-0.029 0.013-0.010 0.029-0.014 0.041-0.026l1.271-1.191c0.662-0.62 0.753-1.635 0.212-2.362zM2.13 17.77c-0.173 0.093-0.37 0.111-0.558 0.052-0.187-0.058-0.338-0.186-0.427-0.358-0.161-0.314-0.068-0.695 0.214-0.902l1.314-0.632 0.449 1.313-0.992 0.527zM5.628 15.942l-1.548 0.8-0.439-1.283 2.027-1.001-0.040 1.484zM20.727 9.322c0 0.918-0.219 1.785-0.599 2.559l-4.181-1.899c-0.044-0.573-0.341-1.075-0.788-1.388l1.464-4.86c2.378 0.756 4.105 2.974 4.105 5.588zM8.938 9.322c0-3.235 2.644-5.867 5.894-5.867 0.253 0 0.5 0.021 0.745 0.052l-1.432 4.754c-0.019-0.001-0.037-0.006-0.057-0.006-1.033 0-1.873 0.837-1.873 1.867s0.84 1.867 1.873 1.867c0.694 0 1.294-0.383 1.618-0.945l3.862 1.755c-1.075 1.446-2.795 2.39-4.737 2.39-3.25 0-5.894-2.632-5.894-5.867zM14.894 10.122c0 0.441-0.362 0.8-0.806 0.8s-0.806-0.359-0.806-0.8c0-0.441 0.362-0.8 0.806-0.8s0.806 0.359 0.806 0.8zM2.465 25.146c-0.236 0.234-0.619 0.234-0.854 0.001-0.114-0.114-0.176-0.263-0.176-0.423s0.062-0.309 0.176-0.421l0.962-0.958 0.851 0.848-0.959 0.955zM5.679 28.88c-0.236 0.234-0.619 0.235-0.855 0.001-0.114-0.114-0.176-0.263-0.176-0.423s0.062-0.309 0.176-0.421l0.963-0.959 0.852 0.848-0.96 0.955zM9.16 25.411c-0.001 0-0.001 0-0.002 0.001l-1.765 1.76-0.852-0.848 1.763-1.755c0 0 0 0 0-0s0.001-0.001 0.002-0.001c0.040-0.040 0.065-0.088 0.090-0.135 0.007-0.014 0.020-0.026 0.026-0.040 0.017-0.041 0.019-0.085 0.026-0.129 0.003-0.025 0.014-0.047 0.014-0.073 0-0.036-0.013-0.070-0.020-0.106-0.006-0.032-0.006-0.065-0.019-0.095-0.020-0.050-0.055-0.094-0.091-0.138-0.010-0.012-0.014-0.027-0.025-0.038 0 0 0 0-0.001 0s-0.001-0.002-0.001-0.002l-1.607-1.6c-0.017-0.017-0.039-0.024-0.058-0.038-0.028-0.022-0.055-0.042-0.087-0.058-0.030-0.015-0.061-0.024-0.093-0.033-0.034-0.010-0.067-0.017-0.103-0.020-0.033-0.002-0.063 0.001-0.095 0.005-0.036 0.004-0.069 0.009-0.104 0.020-0.034 0.011-0.063 0.027-0.094 0.045-0.020 0.011-0.042 0.015-0.061 0.029l-1.773 1.324-0.901-0.897 2.399-2.386 4.361 4.289-0.928 0.919zM15.979 18.394c-0.015-0.002-0.030 0.004-0.045 0.003-0.039-0.002-0.076 0.001-0.115 0.007-0.030 0.005-0.059 0.011-0.088 0.021-0.034 0.012-0.065 0.028-0.097 0.047-0.030 0.018-0.057 0.037-0.083 0.061-0.013 0.011-0.028 0.017-0.040 0.029l-4.698 5.146-4.328-4.257 2.833-2.818c0.209-0.208 0.21-0.546 0.002-0.755-0.105-0.105-0.243-0.157-0.381-0.156v-0.001l-2.219 0.013 0.028-1.607 3.104 0.027c1.265 1.294 3.029 2.101 4.981 2.101 0.437 0 0.864-0.045 1.279-0.123 0.040 0.032 0.079 0.065 0.13 0.085l2.41 0.96 0.152 0.758 0.178 0.885-3.003-0.427zM20.020 18.572l-0.313-1.558 1.446-1.080 0.947 1.257-2.080 1.381zM23.774 15.741l-0.838 0.785-0.931-1.236 0.831-0.637c0.155-0.119 0.351-0.168 0.543-0.143 0.193 0.027 0.364 0.128 0.48 0.284 0.217 0.292 0.18 0.699-0.085 0.947z"></path>
<path fill="#2e2f42" style="fill: var(--color1, #2e2f42)" d="M13.602 18.544l-2.143-2.133c-0.207-0.207-0.545-0.207-0.753 0l-2.142 2.133c-0.1 0.101-0.157 0.236-0.157 0.378s0.056 0.278 0.157 0.378l2.142 2.133c0.104 0.103 0.241 0.155 0.377 0.155s0.273-0.052 0.376-0.155l2.143-2.133c0.1-0.1 0.157-0.236 0.157-0.378s-0.057-0.278-0.157-0.378zM11.083 20.303l-1.387-1.381 1.387-1.381 1.387 1.381-1.387 1.381z"></path>
<path fill="#2e2f42" style="fill: var(--color1, #2e2f42)" d="M17.164 5.071l-0.258 1.036c0.071 0.018 1.738 0.452 1.738 2.149h1.067c-0-2.017-1.666-2.965-2.547-3.185z"></path>
<path fill="#2e2f42" style="fill: var(--color1, #2e2f42)" d="M19.711 9.322h-1.067v1.067h1.067v-1.067z"></path>
</symbol>
<symbol id="icon-Client2" viewBox="0 0 61 32">
<title>Client2</title>
<path fill="#8e8f99" style="fill: var(--color3, #8e8f99)" d="M29.86 7.976h-0.050c-0.076-0.005-0.153-0.006-0.229-0.008v0h-0.166c-0.144 0-0.292 0.004-0.438 0.011-0.011-0.001-0.022-0.001-0.033 0-1.325 0.075-2.624 0.406-3.824 0.976l-0.157 0.076v8.051l0.368-0.125c0.323-0.111 0.667-0.211 1.023-0.303 0.962-0.247 1.951-0.378 2.944-0.391v1.058c-0.132 0.001-0.259 0.005-0.387 0.011h-0.030c-0.764 0.042-1.523 0.158-2.265 0.348-0.94 0.235-1.846 0.588-2.698 1.051v-10.326c0.885-0.516 1.838-0.904 2.831-1.151 0.872-0.225 1.768-0.341 2.668-0.344h0.155c0.186 0.005 0.367 0.013 0.537 0.026 0.448 0.032 0.893 0.102 1.329 0.212v1.041c-0.424-0.099-0.854-0.164-1.288-0.194-0.009-0.001-0.018-0.002-0.026-0.002-0.090-0.008-0.18-0.015-0.263-0.015zM31.692 9.040c0.231 0.018 0.47 0.026 0.712 0.026 0.946-0.003 1.888-0.124 2.805-0.36 0.939-0.236 1.846-0.59 2.697-1.052v10.142c-0.885 0.516-1.838 0.903-2.831 1.151-0.872 0.224-1.768 0.339-2.668 0.343-0.682 0.006-1.362-0.075-2.024-0.239v-10.208c0.156 0.036 0.317 0.069 0.481 0.097 0.269 0.045 0.552 0.079 0.828 0.099zM36.853 9.119l-0.368 0.124c-0.338 0.114-0.68 0.215-1.023 0.306-0.999 0.257-2.026 0.388-3.057 0.392-0.24 0-0.461-0.006-0.674-0.020l-0.293-0.019v8.283l0.252 0.022c0.234 0.020 0.475 0.030 0.718 0.030 0.812-0.003 1.621-0.108 2.407-0.312 0.648-0.162 1.278-0.389 1.881-0.676l0.157-0.076v-8.054z"></path>
<path fill="#8e8f99" style="fill: var(--color3, #8e8f99)" d="M24.632 22.259c-0.053-0.055-0.117-0.098-0.187-0.126s-0.146-0.042-0.222-0.039c-0.081-0.001-0.161 0.014-0.236 0.044-0.069 0.027-0.131 0.069-0.184 0.121s-0.092 0.116-0.119 0.185c-0.029 0.073-0.043 0.15-0.042 0.228v1.38c-0.003 0.097 0.015 0.194 0.054 0.283 0.033 0.071 0.080 0.134 0.138 0.185 0.055 0.046 0.12 0.080 0.19 0.098 0.067 0.019 0.136 0.028 0.206 0.029 0.077 0.001 0.153-0.016 0.223-0.048 0.069-0.030 0.131-0.074 0.184-0.128 0.051-0.054 0.092-0.116 0.12-0.185 0.029-0.070 0.044-0.144 0.044-0.22v-0.154h-0.361v0.123c0.001 0.042-0.006 0.084-0.021 0.123-0.012 0.029-0.030 0.056-0.052 0.078-0.022 0.018-0.048 0.032-0.075 0.040-0.024 0.008-0.050 0.012-0.075 0.013-0.032 0.004-0.065-0.001-0.095-0.014s-0.055-0.034-0.075-0.060c-0.034-0.055-0.051-0.12-0.048-0.185v-1.286c-0.002-0.071 0.013-0.142 0.044-0.206 0.019-0.029 0.045-0.052 0.076-0.067s0.066-0.020 0.1-0.016c0.031-0.001 0.062 0.005 0.090 0.019s0.052 0.034 0.071 0.059c0.040 0.053 0.061 0.118 0.060 0.185v0.119h0.357v-0.141c0.001-0.083-0.014-0.164-0.044-0.241-0.027-0.072-0.068-0.138-0.12-0.194z"></path>
<path fill="#8e8f99" style="fill: var(--color3, #8e8f99)" d="M26.774 22.243c-0.115-0.097-0.26-0.151-0.41-0.152-0.073 0-0.146 0.013-0.215 0.039-0.070 0.025-0.135 0.063-0.19 0.113-0.060 0.054-0.107 0.12-0.14 0.193-0.036 0.084-0.054 0.175-0.052 0.267v1.323c-0.002 0.093 0.015 0.186 0.052 0.271 0.033 0.071 0.080 0.134 0.14 0.185 0.055 0.051 0.12 0.091 0.19 0.117 0.069 0.025 0.142 0.038 0.215 0.039s0.146-0.013 0.215-0.039c0.072-0.026 0.138-0.066 0.195-0.117s0.104-0.115 0.136-0.185c0.037-0.085 0.055-0.178 0.052-0.271v-1.323c0.002-0.092-0.016-0.183-0.052-0.267-0.032-0.073-0.078-0.139-0.136-0.193zM26.606 24.027c0.003 0.035-0.002 0.071-0.014 0.104s-0.032 0.063-0.058 0.088c-0.048 0.040-0.108 0.062-0.17 0.062s-0.122-0.022-0.17-0.062c-0.025-0.024-0.045-0.054-0.058-0.088s-0.017-0.069-0.014-0.104v-1.323c-0.003-0.035 0.002-0.071 0.014-0.104s0.032-0.063 0.058-0.088c0.048-0.040 0.108-0.062 0.17-0.062s0.122 0.022 0.17 0.062c0.025 0.024 0.045 0.054 0.058 0.088s0.017 0.069 0.014 0.104v1.323z"></path>
<path fill="#8e8f99" style="fill: var(--color3, #8e8f99)" d="M29.588 24.618v-2.505h-0.347l-0.455 1.326h-0.006l-0.459-1.326h-0.343v2.505h0.358v-1.524h0.006l0.35 1.077h0.178l0.353-1.077h0.006v1.524h0.358z"></path>
<path fill="#8e8f99" style="fill: var(--color3, #8e8f99)" d="M31.621 22.289c-0.055-0.062-0.125-0.109-0.202-0.137-0.084-0.027-0.171-0.040-0.259-0.039h-0.532v2.505h0.357v-0.978h0.184c0.111 0.005 0.222-0.018 0.322-0.068 0.081-0.045 0.149-0.111 0.196-0.191 0.041-0.067 0.069-0.141 0.082-0.218 0.014-0.094 0.020-0.19 0.019-0.285 0.003-0.12-0.008-0.241-0.035-0.358-0.024-0.087-0.069-0.166-0.132-0.23zM31.437 23.052c-0.002 0.045-0.013 0.090-0.033 0.13-0.020 0.038-0.053 0.069-0.092 0.088-0.053 0.024-0.111 0.034-0.168 0.031h-0.163v-0.852h0.184c0.055-0.003 0.111 0.008 0.161 0.031 0.037 0.021 0.066 0.054 0.084 0.092 0.020 0.044 0.030 0.091 0.031 0.14 0 0.053 0 0.108 0 0.166s0.004 0.118 0 0.172h-0.004z"></path>
<path fill="#8e8f99" style="fill: var(--color3, #8e8f99)" d="M33.312 22.113h-0.293l-0.552 2.505h0.357l0.105-0.538h0.487l0.105 0.538h0.357l-0.566-2.505zM32.983 23.739l0.176-0.908h0.006l0.175 0.908h-0.357z"></path>
<path fill="#8e8f99" style="fill: var(--color3, #8e8f99)" d="M35.618 23.622h-0.006l-0.539-1.509h-0.343v2.505h0.357v-1.506h0.007l0.545 1.506h0.336v-2.505h-0.357v1.509z"></path>
<path fill="#8e8f99" style="fill: var(--color3, #8e8f99)" d="M37.799 22.113l-0.287 0.996h-0.007l-0.287-0.996h-0.378l0.49 1.446v1.059h0.357v-1.059l0.49-1.446h-0.378z"></path>
<path fill="#8e8f99" style="fill: var(--color3, #8e8f99)" d="M23.636 25.325h0.172v0.483h0.117v-0.483h0.171v-0.099h-0.46v0.099z"></path>
<path fill="#8e8f99" style="fill: var(--color3, #8e8f99)" d="M25.082 25.226l-0.225 0.582h0.124l0.048-0.132h0.232l0.050 0.132h0.127l-0.231-0.582h-0.124zM25.064 25.578l0.079-0.215 0.079 0.215h-0.158z"></path>
<path fill="#8e8f99" style="fill: var(--color3, #8e8f99)" d="M26.512 25.593h0.134v0.075c-0.039 0.031-0.088 0.049-0.138 0.049-0.023 0.001-0.047-0.003-0.068-0.013s-0.040-0.024-0.055-0.043c-0.031-0.044-0.046-0.098-0.043-0.152 0-0.129 0.056-0.194 0.167-0.194 0.029-0.003 0.059 0.005 0.083 0.022s0.041 0.042 0.049 0.071l0.115-0.022c-0.025-0.114-0.107-0.171-0.247-0.171-0.075-0.002-0.148 0.025-0.203 0.075-0.029 0.029-0.052 0.064-0.066 0.103s-0.020 0.080-0.017 0.121c-0.003 0.080 0.023 0.158 0.075 0.218 0.028 0.029 0.063 0.052 0.101 0.067s0.079 0.021 0.12 0.018c0.091 0.003 0.179-0.031 0.247-0.092v-0.229h-0.252v0.098z"></path>
<path fill="#8e8f99" style="fill: var(--color3, #8e8f99)" d="M27.972 25.226h-0.118v0.582h0.407v-0.099h-0.29v-0.483z"></path>
<path fill="#8e8f99" style="fill: var(--color3, #8e8f99)" d="M29.206 25.226h-0.118v0.582h0.118v-0.582z"></path>
<path fill="#8e8f99" style="fill: var(--color3, #8e8f99)" d="M30.413 25.615l-0.238-0.388h-0.114v0.582h0.109v-0.38l0.234 0.38h0.117v-0.582h-0.108v0.388z"></path>
<path fill="#8e8f99" style="fill: var(--color3, #8e8f99)" d="M31.504 25.552h0.29v-0.099h-0.29v-0.128h0.312v-0.099h-0.43v0.582h0.442v-0.099h-0.324v-0.157z"></path>
<path fill="#8e8f99" style="fill: var(--color3, #8e8f99)" d="M34.15 25.456h-0.229v-0.229h-0.117v0.582h0.117v-0.254h0.229v0.254h0.117v-0.582h-0.117v0.229z"></path>
<path fill="#8e8f99" style="fill: var(--color3, #8e8f99)" d="M35.247 25.552h0.291v-0.099h-0.291v-0.128h0.313v-0.099h-0.43v0.582h0.441v-0.099h-0.324v-0.157z"></path>
<path fill="#8e8f99" style="fill: var(--color3, #8e8f99)" d="M36.736 25.552c0.101-0.016 0.153-0.069 0.153-0.162 0.003-0.025-0.001-0.050-0.011-0.073s-0.026-0.042-0.046-0.057c-0.053-0.026-0.111-0.038-0.17-0.034h-0.247v0.582h0.117v-0.243h0.023c0.025-0.002 0.050 0.003 0.073 0.013 0.017 0.011 0.031 0.025 0.041 0.043l0.127 0.185h0.14l-0.071-0.114c-0.031-0.056-0.075-0.104-0.129-0.14zM36.618 25.471h-0.086v-0.146h0.092c0.040-0.003 0.080 0.001 0.119 0.014 0.008 0.008 0.015 0.017 0.020 0.027s0.007 0.022 0.006 0.033c-0 0.011-0.004 0.022-0.009 0.032s-0.013 0.019-0.022 0.025c-0.039 0.012-0.079 0.016-0.119 0.014z"></path>
<path fill="#8e8f99" style="fill: var(--color3, #8e8f99)" d="M37.858 25.552h0.289v-0.099h-0.289v-0.128h0.313v-0.099h-0.431v0.582h0.441v-0.099h-0.324v-0.157z"></path>
</symbol>
<symbol id="icon-Client3" viewBox="0 0 61 32">
<title>Client3</title>
<path fill="#8e8f99" style="fill: var(--color3, #8e8f99)" d="M25.022 23.718c0.006 0 0.012 0.001 0.017 0.003s0.010 0.005 0.014 0.009l0.080 0.076c-0.062 0.061-0.139 0.11-0.226 0.143-0.101 0.036-0.21 0.054-0.32 0.051-0.103 0.002-0.206-0.015-0.301-0.048-0.086-0.031-0.163-0.077-0.227-0.136-0.065-0.061-0.114-0.132-0.147-0.209-0.035-0.086-0.052-0.177-0.051-0.268-0.001-0.092 0.017-0.183 0.055-0.269 0.035-0.078 0.088-0.149 0.156-0.209 0.069-0.059 0.151-0.105 0.241-0.136 0.099-0.033 0.204-0.049 0.31-0.048 0.098-0.002 0.196 0.013 0.288 0.044 0.079 0.029 0.152 0.070 0.216 0.121l-0.067 0.081c-0.005 0.006-0.010 0.011-0.017 0.015-0.008 0.005-0.018 0.007-0.027 0.006s-0.020-0.004-0.029-0.009l-0.036-0.021-0.050-0.027c-0.022-0.010-0.044-0.019-0.067-0.027-0.030-0.009-0.060-0.016-0.091-0.021-0.039-0.006-0.079-0.009-0.119-0.009-0.076-0.001-0.152 0.011-0.223 0.036-0.066 0.023-0.125 0.057-0.175 0.101-0.050 0.047-0.089 0.102-0.113 0.161-0.028 0.068-0.042 0.14-0.041 0.213-0.001 0.074 0.013 0.147 0.041 0.216 0.024 0.059 0.062 0.114 0.111 0.16 0.046 0.044 0.103 0.078 0.167 0.099 0.066 0.023 0.136 0.035 0.207 0.034 0.041 0 0.082-0.002 0.122-0.007 0.066-0.007 0.13-0.027 0.186-0.058 0.028-0.016 0.055-0.034 0.079-0.053 0.010-0.008 0.024-0.013 0.038-0.014z"></path>
<path fill="#8e8f99" style="fill: var(--color3, #8e8f99)" d="M27.34 23.338c0.001 0.091-0.017 0.181-0.054 0.267-0.033 0.077-0.084 0.148-0.151 0.207s-0.148 0.105-0.237 0.136c-0.197 0.064-0.414 0.064-0.61 0-0.089-0.031-0.169-0.077-0.236-0.136-0.067-0.060-0.119-0.131-0.153-0.209-0.072-0.173-0.072-0.362 0-0.534 0.034-0.078 0.086-0.149 0.153-0.21 0.067-0.057 0.148-0.102 0.236-0.131 0.196-0.065 0.414-0.065 0.61 0 0.089 0.031 0.17 0.077 0.237 0.136 0.066 0.060 0.118 0.13 0.152 0.207 0.037 0.086 0.056 0.177 0.054 0.268zM27.13 23.338c0.002-0.073-0.011-0.145-0.038-0.214-0.023-0.059-0.059-0.114-0.107-0.16-0.047-0.044-0.105-0.079-0.17-0.101-0.143-0.047-0.301-0.047-0.444 0-0.065 0.023-0.123 0.057-0.17 0.101-0.049 0.046-0.086 0.101-0.108 0.16-0.051 0.14-0.051 0.289 0 0.429 0.023 0.059 0.060 0.114 0.108 0.16 0.047 0.044 0.105 0.078 0.17 0.1 0.143 0.046 0.301 0.046 0.444 0 0.065-0.022 0.122-0.057 0.17-0.1 0.048-0.047 0.085-0.101 0.107-0.16 0.027-0.069 0.040-0.142 0.038-0.214z"></path>
<path fill="#8e8f99" style="fill: var(--color3, #8e8f99)" d="M28.922 23.563l0.021 0.048c0.008-0.017 0.015-0.033 0.023-0.048s0.016-0.032 0.026-0.047l0.513-0.797c0.010-0.014 0.019-0.022 0.029-0.025 0.014-0.004 0.028-0.005 0.042-0.004h0.152v1.296h-0.18v-0.953c0-0.012 0-0.026 0-0.040s-0.001-0.030 0-0.045l-0.516 0.808c-0.007 0.012-0.017 0.022-0.030 0.029s-0.028 0.011-0.044 0.011h-0.029c-0.016 0-0.031-0.004-0.044-0.011s-0.024-0.017-0.030-0.030l-0.531-0.813c0 0.015 0 0.031 0 0.046s0 0.029 0 0.041v0.953h-0.174v-1.293h0.152c0.014-0.001 0.029 0.001 0.042 0.004 0.012 0.005 0.022 0.014 0.028 0.025l0.524 0.798c0.010 0.015 0.019 0.030 0.026 0.046z"></path>
<path fill="#8e8f99" style="fill: var(--color3, #8e8f99)" d="M30.853 23.499v0.485h-0.201v-1.294h0.448c0.084-0.001 0.169 0.008 0.25 0.028 0.065 0.016 0.125 0.043 0.177 0.081 0.045 0.035 0.079 0.078 0.1 0.127 0.024 0.053 0.035 0.109 0.034 0.166 0.001 0.057-0.012 0.113-0.037 0.166-0.024 0.050-0.061 0.094-0.108 0.13-0.052 0.039-0.112 0.068-0.178 0.086-0.078 0.021-0.16 0.031-0.242 0.030l-0.243-0.003zM30.853 23.36h0.243c0.053 0.001 0.105-0.006 0.156-0.020 0.041-0.012 0.080-0.031 0.112-0.056 0.030-0.024 0.053-0.053 0.068-0.086 0.016-0.035 0.025-0.072 0.024-0.109 0.002-0.036-0.005-0.072-0.020-0.105s-0.040-0.064-0.070-0.088c-0.077-0.051-0.173-0.076-0.27-0.069h-0.243v0.533z"></path>
<path fill="#8e8f99" style="fill: var(--color3, #8e8f99)" d="M33.551 23.986h-0.159c-0.016 0-0.032-0.004-0.044-0.012-0.011-0.008-0.020-0.018-0.026-0.030l-0.136-0.313h-0.686l-0.142 0.313c-0.005 0.011-0.014 0.021-0.025 0.029-0.013 0.009-0.029 0.013-0.045 0.013h-0.159l0.602-1.296h0.209l0.61 1.296zM32.557 23.505h0.566l-0.239-0.527c-0.018-0.040-0.033-0.080-0.045-0.122l-0.023 0.068c-0.007 0.021-0.015 0.039-0.022 0.055l-0.237 0.527z"></path>
<path fill="#8e8f99" style="fill: var(--color3, #8e8f99)" d="M34.418 22.696c0.012 0.006 0.022 0.014 0.030 0.023l0.878 0.977c0-0.015 0-0.031 0-0.045s0-0.029 0-0.043v-0.918h0.18v1.296h-0.1c-0.014 0-0.028-0.002-0.041-0.008s-0.023-0.014-0.032-0.024l-0.877-0.976c0.001 0.015 0.001 0.030 0 0.045s0 0.027 0 0.039v0.924h-0.18v-1.296h0.106c0.012-0 0.025 0.002 0.036 0.006z"></path>
<path fill="#8e8f99" style="fill: var(--color3, #8e8f99)" d="M36.985 23.47v0.515h-0.201v-0.515l-0.555-0.78h0.18c0.016-0.001 0.031 0.003 0.043 0.011 0.011 0.008 0.020 0.018 0.027 0.029l0.347 0.503c0.014 0.021 0.026 0.041 0.036 0.060s0.018 0.037 0.025 0.055l0.026-0.056c0.010-0.020 0.021-0.040 0.034-0.059l0.343-0.507c0.007-0.010 0.016-0.019 0.026-0.027 0.012-0.009 0.028-0.014 0.043-0.013h0.182l-0.556 0.784z"></path>
<path fill="#8e8f99" style="fill: var(--color3, #8e8f99)" d="M28.823 20.515c0.087 0.009 0.176 0.017 0.265 0.024 1.354-0.518 2.5-1.365 3.294-2.436s1.201-2.318 1.17-3.585l-1.493-1.275c0.303 1.349 0.162 2.744-0.41 4.029s-1.55 2.408-2.826 3.244z"></path>
<path fill="#8e8f99" style="fill: var(--color3, #8e8f99)" d="M28.29 20.456l0.040 0.007c1.364-0.833 2.403-1.997 2.984-3.341s0.677-2.805 0.276-4.196l-2.126-1.816c0.86 1.493 1.206 3.164 0.998 4.818s-0.961 3.225-2.172 4.528z"></path>
<path fill="#8e8f99" style="fill: var(--color3, #8e8f99)" d="M35.5 16.015c-0.361 1.393-1.238 2.648-2.501 3.581-0.369 0.274-0.767 0.518-1.188 0.729 1.028-0.258 1.974-0.715 2.763-1.335s1.401-1.386 1.789-2.24l-0.862-0.736z"></path>
<path fill="#8e8f99" style="fill: var(--color3, #8e8f99)" d="M35.162 15.81l-1.228-1.049c-0.023 1.196-0.421 2.364-1.152 3.384s-1.768 1.854-3.004 2.416h0.006c0.275-0 0.551-0.014 0.824-0.042 1.155-0.403 2.175-1.044 2.97-1.865s1.339-1.799 1.584-2.844z"></path>
<path fill="#8e8f99" style="fill: var(--color3, #8e8f99)" d="M28.468 10.344l-1.465-1.253c-1.309 0.432-2.435 1.192-3.231 2.18s-1.223 2.158-1.227 3.357v0c0.005 1.325 0.527 2.611 1.483 3.654s2.293 1.784 3.797 2.105c1.343-1.398 2.13-3.126 2.245-4.932s-0.446-3.597-1.604-5.111z"></path>
<path fill="#8e8f99" style="fill: var(--color3, #8e8f99)" d="M38.545 15.617c-0.005-1.572-0.739-3.079-2.040-4.19s-3.064-1.738-4.904-1.743c-0.85-0.001-1.693 0.133-2.486 0.395l8.967 7.661c0.307-0.677 0.464-1.397 0.464-2.123z"></path>
</symbol>
<symbol id="icon-clock1" viewBox="0 0 32 32">
<title>clock1</title>
<path fill="#2e2f42" style="fill: var(--color1, #2e2f42)" d="M31.297 15.301c-0.002-8.452-6.855-15.303-15.308-15.301s-15.303 6.855-15.301 15.308c0.001 6.658 4.307 12.551 10.649 14.576 0.061 0.019 0.124 0.029 0.187 0.029 0.121-0 0.239-0.032 0.342-0.094 0.135-0.080 0.236-0.207 0.283-0.356l3.865-12.25c1.057-0.005 1.909-0.866 1.903-1.923s-0.866-1.909-1.923-1.903c-0.284 0.001-0.565 0.067-0.82 0.191l-5.106-5.107c-0.253-0.245-0.657-0.238-0.902 0.016-0.239 0.247-0.239 0.639 0 0.886l5.103 5.109c-0.392 0.799-0.168 1.764 0.536 2.309l-3.683 11.673c-7.278-2.681-11.004-10.754-8.323-18.032s10.754-11.004 18.032-8.323c7.278 2.681 11.004 10.754 8.323 18.032-1.31 3.556-4.001 6.431-7.462 7.973l-0.398-1.874c-0.073-0.345-0.411-0.565-0.756-0.492-0.109 0.023-0.209 0.074-0.293 0.148l-3.837 3.426c-0.263 0.234-0.287 0.637-0.052 0.9 0.076 0.085 0.174 0.149 0.283 0.184l4.899 1.564c0.335 0.108 0.694-0.077 0.802-0.412 0.034-0.106 0.040-0.219 0.017-0.328l-0.391-1.839c5.664-2.388 9.342-7.942 9.329-14.089zM15.992 14.664c0.352 0 0.638 0.286 0.638 0.638s-0.286 0.638-0.638 0.638c-0.352 0-0.638-0.285-0.638-0.638s0.285-0.638 0.638-0.638zM18.093 29.528l2.184-1.948 0.603 2.84-2.787-0.892z"></path>
<path fill="#4d5ae5" style="fill: var(--color2, #4d5ae5)" d="M15.354 3.185v1.275c0 0.352 0.285 0.638 0.638 0.638s0.638-0.285 0.638-0.638v-1.275c0-0.352-0.286-0.638-0.638-0.638s-0.638 0.286-0.638 0.638z"></path>
<path fill="#4d5ae5" style="fill: var(--color2, #4d5ae5)" d="M3.876 14.664c-0.352 0-0.638 0.286-0.638 0.638s0.285 0.638 0.638 0.638h1.275c0.352 0 0.638-0.285 0.638-0.638s-0.285-0.638-0.638-0.638h-1.275z"></path>
<path fill="#4d5ae5" style="fill: var(--color2, #4d5ae5)" d="M28.108 15.939c0.352 0 0.638-0.285 0.638-0.638s-0.285-0.638-0.638-0.638h-1.275c-0.352 0-0.638 0.286-0.638 0.638s0.286 0.638 0.638 0.638h1.275z"></path>
</symbol>
<symbol id="icon-diagram1" viewBox="0 0 32 32">
<title>diagram1</title>
<path fill="#4d5ae5" style="fill: var(--color2, #4d5ae5)" d="M14.926 14.965h1.066v4.798h-1.066v-4.797z"></path>
<path fill="#4d5ae5" style="fill: var(--color2, #4d5ae5)" d="M19.19 17.097h1.066v2.665h-1.066v-2.665z"></path>
<path fill="#4d5ae5" style="fill: var(--color2, #4d5ae5)" d="M10.661 18.696h1.066v1.066h-1.066v-1.066z"></path>
<path fill="#4d5ae5" style="fill: var(--color2, #4d5ae5)" d="M7.463 18.163h1.066v1.599h-1.066v-1.599z"></path>
<path fill="#2e2f42" style="fill: var(--color1, #2e2f42)" d="M1.599 28.291h25.587c0.883 0 1.599-0.716 1.599-1.599v-2.132c0-0.883-0.716-1.599-1.599-1.599h-0.533v-13.293l3.028-2.868c0.703 0.346 1.553 0.136 2.013-0.499s0.396-1.508-0.152-2.068-1.42-0.644-2.065-0.198c-0.644 0.446-0.873 1.292-0.542 2.002l-2.281 2.163v-1.23c0-0.883-0.716-1.599-1.599-1.599h-21.322c-0.883 0-1.599 0.716-1.599 1.599v15.992h-0.533c-0.883 0-1.599 0.716-1.599 1.599v2.132c0 0.883 0.716 1.599 1.599 1.599zM30.384 4.837c0.294 0 0.533 0.239 0.533 0.533s-0.239 0.533-0.533 0.533c-0.294 0-0.533-0.239-0.533-0.533s0.239-0.533 0.533-0.533zM3.198 6.969c0-0.294 0.239-0.533 0.533-0.533h21.322c0.294 0 0.533 0.239 0.533 0.533v2.239l-1.066 1.013v-2.186c0-0.294-0.239-0.533-0.533-0.533h-19.19c-0.294 0-0.533 0.239-0.533 0.533v13.326c0 0.294 0.239 0.533 0.533 0.533h19.19c0.294 0 0.533-0.239 0.533-0.533v-9.674l1.066-1.010v12.284h-22.388v-15.992zM7.996 13.899c-0.721-0.002-1.354 0.478-1.546 1.174s0.105 1.433 0.725 1.801c0.62 0.368 1.41 0.276 1.928-0.226l1.853 0.93c0.215 0.108 0.476 0.057 0.636-0.123l3.939-4.431 3.872 2.901c0.208 0.156 0.498 0.139 0.686-0.039l3.365-3.188v8.131h-18.124v-12.26h18.124v2.66l-3.771 3.572-3.904-2.927c-0.222-0.166-0.534-0.135-0.718 0.072l-3.993 4.493-1.493-0.746c0.011-0.064 0.018-0.129 0.020-0.193 0-0.883-0.716-1.599-1.599-1.599zM8.529 15.498c0 0.294-0.239 0.533-0.533 0.533s-0.533-0.239-0.533-0.533c0-0.294 0.239-0.533 0.533-0.533s0.533 0.239 0.533 0.533zM11.727 24.027h5.331v0.533c0 0.294-0.239 0.533-0.533 0.533h-4.264c-0.294 0-0.533-0.239-0.533-0.533v-0.533zM1.066 24.56c0-0.294 0.239-0.533 0.533-0.533h9.062v0.533c0 0.883 0.716 1.599 1.599 1.599h4.264c0.883 0 1.599-0.716 1.599-1.599v-0.533h9.062c0.294 0 0.533 0.239 0.533 0.533v2.132c0 0.294-0.239 0.533-0.533 0.533h-25.587c-0.294 0-0.533-0.239-0.533-0.533v-2.132z"></path>
</symbol>
<symbol id="icon-ellipse" viewBox="0 0 32 32">
<title>ellipse</title>
<path fill="#4d5ae5" style="fill: var(--color2, #4d5ae5)" d="M32 16c0 4.418-1.791 8.418-4.686 11.314s-6.895 4.686-11.314 4.686c-4.418 0-8.418-1.791-11.314-4.686s-4.686-6.895-4.686-11.314c0-4.418 1.791-8.418 4.686-11.314s6.895-4.686 11.314-4.686c4.418 0 8.418 1.791 11.314 4.686s4.686 6.895 4.686 11.314z"></path>
<path fill="#f4f4fd" style="fill: var(--color4, #f4f4fd)" d="M22.387 13.363c-0.030-0.68-0.14-1.148-0.298-1.553-0.163-0.43-0.413-0.815-0.74-1.135-0.32-0.325-0.708-0.578-1.133-0.738-0.408-0.158-0.873-0.268-1.553-0.298-0.685-0.032-0.903-0.040-2.641-0.040s-1.955 0.008-2.638 0.038c-0.68 0.030-1.148 0.14-1.553 0.298-0.43 0.162-0.815 0.413-1.135 0.74-0.325 0.32-0.578 0.708-0.738 1.133-0.158 0.408-0.268 0.873-0.298 1.553-0.032 0.685-0.040 0.903-0.040 2.641s0.008 1.955 0.038 2.638c0.030 0.68 0.14 1.148 0.298 1.553 0.162 0.43 0.415 0.815 0.74 1.135 0.32 0.325 0.708 0.578 1.133 0.738 0.408 0.158 0.873 0.268 1.553 0.298 0.683 0.030 0.9 0.038 2.638 0.038s1.955-0.007 2.638-0.038c0.68-0.030 1.148-0.14 1.553-0.298 0.86-0.333 1.54-1.013 1.873-1.873 0.157-0.408 0.268-0.873 0.298-1.553 0.030-0.683 0.038-0.9 0.038-2.638s-0.003-1.955-0.033-2.638zM21.235 18.589c-0.028 0.625-0.133 0.963-0.22 1.188-0.215 0.558-0.658 1-1.215 1.215-0.225 0.088-0.565 0.193-1.188 0.22-0.675 0.030-0.878 0.037-2.585 0.037s-1.913-0.007-2.586-0.037c-0.625-0.027-0.963-0.132-1.188-0.22-0.278-0.103-0.53-0.265-0.735-0.478-0.213-0.208-0.375-0.458-0.478-0.735-0.088-0.225-0.193-0.565-0.22-1.188-0.030-0.675-0.038-0.878-0.038-2.586s0.007-1.913 0.038-2.586c0.027-0.625 0.132-0.963 0.22-1.188 0.103-0.278 0.265-0.53 0.48-0.735 0.207-0.213 0.458-0.375 0.735-0.478 0.225-0.087 0.565-0.192 1.188-0.22 0.675-0.030 0.878-0.038 2.586-0.038 1.71 0 1.913 0.008 2.586 0.038 0.625 0.028 0.963 0.133 1.188 0.22 0.277 0.102 0.53 0.265 0.735 0.478 0.212 0.208 0.375 0.458 0.478 0.735 0.088 0.225 0.192 0.565 0.22 1.188 0.030 0.675 0.038 0.878 0.038 2.586s-0.008 1.908-0.038 2.583z"></path>
<path fill="#f4f4fd" style="fill: var(--color4, #f4f4fd)" d="M16.024 12.713c-1.815 0-3.288 1.473-3.288 3.288s1.473 3.288 3.288 3.288c1.815 0 3.288-1.473 3.288-3.288s-1.473-3.288-3.288-3.288zM16.024 18.134c-1.178 0-2.133-0.955-2.133-2.133s0.955-2.133 2.133-2.133c1.178 0 2.133 0.955 2.133 2.133s-0.955 2.133-2.133 2.133z"></path>
<path fill="#f4f4fd" style="fill: var(--color4, #f4f4fd)" d="M20.21 12.583c0 0.424-0.344 0.768-0.768 0.768s-0.768-0.344-0.768-0.768c0-0.424 0.344-0.768 0.768-0.768s0.768 0.344 0.768 0.768z"></path>
</symbol>
<symbol id="icon-facebook1" viewBox="0 0 32 32">
<title>facebook1</title>
<path fill="#f4f4fd" style="fill: var(--color4, #f4f4fd)" d="M21.329 5.313h2.921v-5.088c-0.504-0.069-2.237-0.225-4.256-0.225-4.212 0-7.097 2.649-7.097 7.519v4.481h-4.648v5.688h4.648v14.312h5.699v-14.311h4.46l0.708-5.688h-5.169v-3.919c0.001-1.644 0.444-2.769 2.735-2.769z"></path>
</symbol>
<symbol id="icon-instagram2" viewBox="0 0 32 32">
<title>instagram2</title>
<path fill="#f4f4fd" style="fill: var(--color4, #f4f4fd)" d="M31.969 9.408c-0.075-1.7-0.35-2.869-0.744-3.882-0.406-1.075-1.031-2.038-1.85-2.838-0.8-0.813-1.769-1.444-2.832-1.844-1.019-0.394-2.182-0.669-3.882-0.744-1.713-0.081-2.257-0.1-6.601-0.1s-4.888 0.019-6.595 0.094c-1.7 0.075-2.869 0.35-3.882 0.744-1.075 0.406-2.038 1.031-2.838 1.85-0.813 0.8-1.444 1.769-1.844 2.832-0.394 1.019-0.669 2.182-0.744 3.882-0.081 1.713-0.1 2.257-0.1 6.601s0.019 4.888 0.094 6.595c0.075 1.7 0.35 2.869 0.744 3.882 0.406 1.075 1.038 2.038 1.85 2.838 0.8 0.813 1.769 1.444 2.832 1.844 1.019 0.394 2.182 0.669 3.882 0.744 1.706 0.075 2.25 0.094 6.595 0.094s4.888-0.018 6.595-0.094c1.7-0.075 2.869-0.35 3.882-0.744 2.151-0.831 3.851-2.532 4.682-4.682 0.394-1.019 0.669-2.182 0.744-3.882 0.075-1.707 0.094-2.251 0.094-6.595s-0.006-4.888-0.081-6.595zM29.087 22.473c-0.069 1.563-0.331 2.407-0.55 2.969-0.538 1.394-1.644 2.501-3.038 3.038-0.563 0.219-1.413 0.481-2.969 0.55-1.688 0.075-2.194 0.094-6.464 0.094s-4.782-0.018-6.464-0.094c-1.563-0.069-2.407-0.331-2.969-0.55-0.694-0.256-1.325-0.663-1.838-1.194-0.531-0.519-0.938-1.144-1.194-1.838-0.219-0.563-0.481-1.413-0.55-2.969-0.075-1.688-0.094-2.194-0.094-6.464s0.019-4.782 0.094-6.464c0.069-1.563 0.331-2.407 0.55-2.969 0.256-0.694 0.663-1.325 1.2-1.838 0.519-0.531 1.144-0.938 1.838-1.194 0.563-0.219 1.413-0.481 2.969-0.55 1.688-0.075 2.194-0.094 6.464-0.094 4.276 0 4.782 0.019 6.464 0.094 1.563 0.069 2.407 0.331 2.969 0.55 0.694 0.256 1.325 0.662 1.838 1.194 0.531 0.519 0.938 1.144 1.194 1.838 0.219 0.563 0.481 1.413 0.55 2.969 0.075 1.688 0.094 2.194 0.094 6.464s-0.019 4.77-0.094 6.457z"></path>
<path fill="#f4f4fd" style="fill: var(--color4, #f4f4fd)" d="M16.059 7.782c-4.538 0-8.22 3.682-8.22 8.22s3.682 8.22 8.22 8.22c4.538 0 8.22-3.682 8.22-8.22s-3.682-8.22-8.22-8.22zM16.059 21.335c-2.944 0-5.332-2.388-5.332-5.332s2.388-5.332 5.332-5.332c2.944 0 5.332 2.388 5.332 5.332s-2.388 5.332-5.332 5.332z"></path>
<path fill="#f4f4fd" style="fill: var(--color4, #f4f4fd)" d="M26.524 7.457c0 1.060-0.859 1.919-1.919 1.919s-1.919-0.859-1.919-1.919c0-1.060 0.859-1.919 1.919-1.919s1.919 0.859 1.919 1.919z"></path>
</symbol>
<symbol id="icon-linkedin1" viewBox="0 0 32 32">
<title>linkedin1</title>
<path fill="#f4f4fd" style="fill: var(--color4, #f4f4fd)" d="M31.992 32v-0.001h0.008v-11.736c0-5.741-1.236-10.164-7.948-10.164-3.227 0-5.392 1.771-6.276 3.449h-0.093v-2.913h-6.364v21.364h6.627v-10.579c0-2.785 0.528-5.479 3.977-5.479 3.399 0 3.449 3.179 3.449 5.657v10.401h6.62z"></path>
<path fill="#f4f4fd" style="fill: var(--color4, #f4f4fd)" d="M0.528 10.636h6.635v21.364h-6.635v-21.364z"></path>
<path fill="#f4f4fd" style="fill: var(--color4, #f4f4fd)" d="M3.843-0c-2.121 0-3.843 1.721-3.843 3.843s1.721 3.879 3.843 3.879c2.121 0 3.843-1.757 3.843-3.879-0.001-2.121-1.723-3.843-3.843-3.843v0z"></path>
</symbol>
<symbol id="icon-Logo" viewBox="0 0 59 32">
<title>Logo</title>
<path fill="#8e8f99" style="fill: var(--color3, #8e8f99)" d="M15.31 25.356c0.14 0.156 0.215 0.352 0.211 0.553 0.007 0.131-0.019 0.262-0.075 0.383s-0.143 0.229-0.252 0.316c-0.273 0.185-0.61 0.276-0.951 0.255h-1.671v-3.504h1.637c0.323-0.019 0.644 0.063 0.907 0.233 0.106 0.080 0.189 0.18 0.245 0.294s0.080 0.238 0.073 0.361c0.010 0.193-0.058 0.383-0.19 0.536-0.127 0.139-0.303 0.236-0.498 0.274 0.222 0.036 0.422 0.143 0.565 0.3zM13.349 24.827h0.7c0.159 0.011 0.317-0.031 0.445-0.116 0.053-0.043 0.093-0.096 0.12-0.155s0.037-0.123 0.031-0.187c0.005-0.063-0.006-0.127-0.031-0.186s-0.066-0.113-0.117-0.156c-0.132-0.088-0.295-0.13-0.458-0.118h-0.688v0.919zM14.562 26.171c0.056-0.044 0.1-0.099 0.129-0.161s0.041-0.129 0.036-0.195c0.004-0.068-0.009-0.135-0.038-0.198s-0.074-0.118-0.131-0.162c-0.137-0.091-0.305-0.136-0.475-0.127h-0.734v0.964h0.744c0.167 0.009 0.333-0.034 0.47-0.122z"></path>
<path fill="#8e8f99" style="fill: var(--color3, #8e8f99)" d="M18.656 26.862l-0.911-1.369h-0.342v1.369h-0.783v-3.504h1.483c0.374-0.023 0.744 0.083 1.033 0.298 0.207 0.19 0.332 0.441 0.353 0.707s-0.066 0.529-0.242 0.743c-0.183 0.189-0.433 0.314-0.707 0.356l0.97 1.4h-0.852zM17.403 25.015h0.641c0.445 0 0.667-0.177 0.667-0.531 0.005-0.072-0.008-0.145-0.036-0.212s-0.072-0.13-0.128-0.181c-0.141-0.105-0.322-0.156-0.504-0.142h-0.648l0.008 1.067z"></path>
<path fill="#8e8f99" style="fill: var(--color3, #8e8f99)" d="M22.939 26.157h-1.561l-0.276 0.705h-0.821l1.434-3.465h0.888l1.428 3.465h-0.822l-0.27-0.705zM22.73 25.627l-0.57-1.479-0.57 1.479h1.141z"></path>
<path fill="#8e8f99" style="fill: var(--color3, #8e8f99)" d="M28.299 26.863h-0.778l-1.744-2.383v2.383h-0.776v-3.504h0.776l1.744 2.397v-2.397h0.778v3.504z"></path>
<path fill="#8e8f99" style="fill: var(--color3, #8e8f99)" d="M32.737 26.024c-0.161 0.265-0.406 0.48-0.704 0.618-0.338 0.154-0.714 0.23-1.093 0.221h-1.384v-3.504h1.384c0.378-0.009 0.754 0.065 1.093 0.216 0.298 0.135 0.543 0.348 0.704 0.611 0.16 0.285 0.243 0.6 0.243 0.919s-0.083 0.634-0.243 0.919zM31.847 25.94c0.222-0.233 0.344-0.529 0.344-0.836s-0.122-0.603-0.344-0.836c-0.268-0.211-0.618-0.318-0.974-0.298h-0.54v2.268h0.54c0.355 0.020 0.705-0.087 0.974-0.298z"></path>
<path fill="#8e8f99" style="fill: var(--color3, #8e8f99)" d="M23.425 3.867c0 0 10.038 3.412 9.825 8.349v8.351c0 0-10.031-3.413-9.821-8.351l-0.004-8.349z"></path>
<path fill="#8e8f99" style="fill: var(--color3, #8e8f99)" d="M42.194 18.611c1.896-1.175 4.089-1.902 6.378-2.116v-2.614c-2.638 0.915-4.875 2.575-6.378 4.73z"></path>
<path fill="#8e8f99" style="fill: var(--color3, #8e8f99)" d="M41.055 19.399c1.552-2.813 4.242-4.983 7.517-6.065v-7.532c0 0-14.296 4.86-13.993 11.891v11.889c0 0 0.637-0.217 1.639-0.625 0-0.38 0-0.764 0.046-1.149 0.296-3.264 2.020-6.289 4.792-8.409z"></path>
<path fill="#8e8f99" style="fill: var(--color3, #8e8f99)" d="M39.695 23.815c0.075-0.825 0.243-1.64 0.5-2.434-1.726 1.831-2.772 4.103-2.989 6.497-0.021 0.226-0.032 0.452-0.038 0.685 0.812-0.351 1.757-0.789 2.75-1.304-0.253-1.132-0.328-2.291-0.222-3.443z"></path>
<path fill="#8e8f99" style="fill: var(--color3, #8e8f99)" d="M40.264 23.858c-0.095 1.042-0.036 2.090 0.177 3.117 3.906-2.104 8.294-5.355 8.125-9.284v-0.342c-2.791 0.281-5.401 1.379-7.431 3.126-0.475 1.082-0.769 2.222-0.871 3.383z"></path>
</symbol>
<symbol id="icon-Logo2" viewBox="0 0 59 32">
<title>Logo2</title>
<path fill="#8e8f99" style="fill: var(--color3, #8e8f99)" d="M30.588 15.682c-0.254-0.338-0.375-0.737-0.346-1.138v-1.65c0-0.506 0.115-0.89 0.344-1.153s0.624-0.394 1.183-0.393c0.525 0 0.898 0.112 1.119 0.336 0.24 0.286 0.358 0.635 0.331 0.987v0.388h-0.94v-0.393c0.003-0.129-0.006-0.257-0.027-0.384-0.014-0.087-0.061-0.168-0.134-0.228-0.096-0.066-0.218-0.097-0.34-0.089-0.129-0.008-0.256 0.025-0.358 0.094-0.082 0.067-0.136 0.156-0.156 0.252-0.027 0.135-0.039 0.271-0.037 0.408v2.003c-0.015 0.193 0.027 0.387 0.121 0.562 0.047 0.060 0.112 0.107 0.188 0.136s0.16 0.041 0.242 0.032c0.12 0.009 0.24-0.024 0.333-0.091 0.077-0.066 0.126-0.151 0.14-0.243 0.022-0.133 0.032-0.267 0.029-0.401v-0.406h0.94v0.371c0.026 0.367-0.088 0.732-0.325 1.038-0.216 0.245-0.584 0.368-1.125 0.368s-0.949-0.131-1.181-0.403z"></path>
<path fill="#8e8f99" style="fill: var(--color3, #8e8f99)" d="M34.501 15.699c-0.237-0.257-0.356-0.631-0.356-1.127v-1.736c0-0.49 0.119-0.861 0.356-1.113s0.634-0.377 1.191-0.376c0.553 0 0.947 0.125 1.185 0.376 0.237 0.252 0.358 0.623 0.358 1.113v1.736c0 0.49-0.121 0.866-0.362 1.125s-0.634 0.388-1.181 0.388-0.951-0.131-1.191-0.386zM36.129 15.282c0.085-0.161 0.124-0.337 0.113-0.514v-2.125c0.011-0.173-0.027-0.346-0.111-0.504-0.048-0.061-0.114-0.109-0.192-0.138s-0.164-0.040-0.248-0.030c-0.084-0.010-0.17 0-0.248 0.030s-0.145 0.077-0.193 0.138c-0.086 0.157-0.124 0.33-0.113 0.504v2.136c-0.012 0.177 0.027 0.353 0.113 0.514 0.055 0.054 0.122 0.098 0.198 0.127s0.158 0.045 0.242 0.045 0.166-0.015 0.242-0.045c0.076-0.030 0.143-0.073 0.198-0.127v-0.010z"></path>
<path fill="#8e8f99" style="fill: var(--color3, #8e8f99)" d="M38.364 11.398h1.012l0.761 3.203 0.778-3.203h0.984l0.099 4.623h-0.728l-0.078-3.213-0.751 3.213h-0.584l-0.778-3.225-0.072 3.225h-0.735l0.091-4.623z"></path>
<path fill="#8e8f99" style="fill: var(--color3, #8e8f99)" d="M43.133 11.398h1.576c0.908 0 1.362 0.438 1.362 1.313 0 0.838-0.478 1.257-1.434 1.256h-0.537v2.055h-0.973l0.006-4.623zM44.479 13.374c0.096 0.011 0.194 0.003 0.286-0.022s0.177-0.067 0.249-0.124c0.112-0.156 0.161-0.339 0.14-0.522 0.005-0.141-0.011-0.282-0.047-0.42-0.014-0.046-0.038-0.089-0.072-0.127s-0.075-0.069-0.123-0.093c-0.135-0.056-0.284-0.081-0.434-0.074h-0.377v1.382h0.377z"></path>
<path fill="#8e8f99" style="fill: var(--color3, #8e8f99)" d="M47.474 11.398h1.045l1.072 4.623h-0.907l-0.212-1.066h-0.932l-0.218 1.066h-0.92l1.072-4.623zM48.367 14.419l-0.364-1.941-0.364 1.941h0.728z"></path>
<path fill="#8e8f99" style="fill: var(--color3, #8e8f99)" d="M50.456 11.398h0.681l1.304 2.637v-2.637h0.807v4.623h-0.648l-1.311-2.753v2.753h-0.835l0.002-4.623z"></path>
<path fill="#8e8f99" style="fill: var(--color3, #8e8f99)" d="M55.139 14.258l-1.084-2.854h0.912l0.661 1.833 0.621-1.833h0.893l-1.070 2.854v1.763h-0.934v-1.763z"></path>
<path fill="#8e8f99" style="fill: var(--color3, #8e8f99)" d="M32.090 18.042v0.242h-0.794v1.879h-0.333v-1.879h-0.798v-0.242h1.924z"></path>
<path fill="#8e8f99" style="fill: var(--color3, #8e8f99)" d="M34.578 20.163h-0.257c-0.026 0.001-0.052-0.006-0.072-0.020-0.019-0.012-0.034-0.029-0.043-0.049l-0.23-0.504h-1.101l-0.23 0.504c-0.007 0.021-0.018 0.041-0.035 0.057-0.020 0.014-0.046 0.021-0.072 0.020h-0.257l0.973-2.12h0.339l0.984 2.112zM32.968 19.375h0.918l-0.389-0.863c-0.029-0.065-0.053-0.132-0.072-0.2-0.014 0.040-0.025 0.079-0.037 0.113l-0.035 0.089-0.385 0.861z"></path>
<path fill="#8e8f99" style="fill: var(--color3, #8e8f99)" d="M36.256 19.954c0.061 0.003 0.122 0.003 0.183 0 0.053-0.005 0.105-0.013 0.156-0.025 0.048-0.010 0.094-0.023 0.14-0.039 0.043-0.015 0.086-0.034 0.13-0.052v-0.477h-0.389c-0.010 0-0.019-0.001-0.028-0.004s-0.017-0.007-0.024-0.013c-0.006-0.005-0.011-0.011-0.015-0.017s-0.005-0.014-0.005-0.021v-0.163h0.755v0.813c-0.062 0.038-0.127 0.072-0.195 0.101-0.069 0.030-0.142 0.054-0.216 0.072-0.080 0.020-0.161 0.035-0.243 0.044-0.094 0.009-0.189 0.014-0.284 0.013-0.168 0.001-0.334-0.026-0.49-0.079-0.146-0.050-0.278-0.126-0.389-0.222-0.108-0.097-0.194-0.211-0.251-0.336-0.061-0.141-0.092-0.29-0.090-0.44-0.002-0.151 0.028-0.301 0.088-0.443 0.056-0.126 0.141-0.24 0.251-0.336 0.111-0.095 0.243-0.17 0.389-0.22 0.167-0.054 0.343-0.081 0.521-0.079 0.091-0 0.181 0.006 0.27 0.018 0.079 0.011 0.157 0.029 0.232 0.054 0.068 0.022 0.133 0.050 0.195 0.084 0.060 0.033 0.116 0.070 0.169 0.111l-0.093 0.131c-0.007 0.012-0.018 0.022-0.032 0.029s-0.029 0.011-0.044 0.011c-0.022-0.001-0.042-0.006-0.060-0.017-0.029-0.013-0.060-0.030-0.095-0.050-0.041-0.022-0.085-0.041-0.13-0.057-0.058-0.020-0.118-0.036-0.179-0.047-0.081-0.013-0.164-0.019-0.247-0.018-0.128-0.001-0.256 0.019-0.376 0.059-0.108 0.038-0.206 0.095-0.286 0.168-0.081 0.076-0.142 0.166-0.181 0.264-0.087 0.23-0.087 0.477 0 0.707 0.043 0.1 0.109 0.191 0.195 0.267 0.080 0.073 0.177 0.13 0.284 0.168 0.124 0.037 0.255 0.051 0.385 0.042z"></path>
<path fill="#8e8f99" style="fill: var(--color3, #8e8f99)" d="M39.357 19.921h1.062v0.242h-1.387v-2.12h0.333l-0.008 1.879z"></path>
<path fill="#8e8f99" style="fill: var(--color3, #8e8f99)" d="M41.524 20.162h-0.333v-2.12h0.333v2.12z"></path>
<path fill="#8e8f99" style="fill: var(--color3, #8e8f99)" d="M42.761 18.052c0.020 0.010 0.037 0.023 0.051 0.039l1.422 1.598c-0.002-0.025-0.002-0.050 0-0.076 0-0.023 0-0.047 0-0.069v-1.511h0.29v2.129h-0.167c-0.025 0.002-0.050-0.002-0.072-0.012-0.020-0.011-0.038-0.024-0.053-0.040l-1.42-1.597c0 0.025 0 0.049 0 0.072s0 0.045 0 0.066v1.511h-0.278v-2.12h0.173c0.019 0 0.037 0.003 0.054 0.010z"></path>
<path fill="#8e8f99" style="fill: var(--color3, #8e8f99)" d="M46.974 18.042v0.233h-1.179v0.7h0.955v0.225h-0.955v0.724h1.179v0.233h-1.521v-2.115h1.521z"></path>
<path fill="#8e8f99" style="fill: var(--color3, #8e8f99)" d="M12.112 4.948l14.772 3.619v12.683l-14.772-3.618v-12.685zM11.164 3.867v14.382l16.666 4.084v-14.38l-16.666-4.086z"></path>
<path fill="#8e8f99" style="fill: var(--color3, #8e8f99)" d="M20.096 29.010l-16.667-4.088v-14.381l16.667 4.086v14.382z"></path>
<path fill="#8e8f99" style="fill: var(--color3, #8e8f99)" d="M11.44 4.785l14.58 3.574-6.2 5.352-14.582-3.576 6.202-5.35zM11.164 3.867l-7.735 6.675 16.667 4.086 7.733-6.675-16.666-4.086z"></path>
<path fill="#8e8f99" style="fill: var(--color3, #8e8f99)" d="M21.034 28.201l6.796-5.866-6.796-1.667v7.532z"></path>
</symbol>
<symbol id="icon-Logo-yaco" viewBox="0 0 59 32">
<title>Logo-yaco</title>
<path fill="#8e8f99" style="fill: var(--color3, #8e8f99)" d="M21.714 4l4.004 3.815-7.433-0.004v18.51h19.429v-7.077l4 3.811v-19.054h-20zM37.538 18.796l-11.354-10.817h11.354v10.817zM34.013 23.613h-12.653v-12.449h0.894v11.606h11.759v0.843zM23.883 29.749l-0.472-0.97h-0.389l0.684 1.284v0.748h0.353v-0.748l0.684-1.284h-0.388l-0.472 0.97zM25.622 28.78h0.084l0.767 2.031h-0.368l-0.164-0.476h-0.786l-0.164 0.476h-0.367l0.765-2.031h0.234zM25.249 30.058h0.595l-0.298-0.862-0.297 0.862zM27.704 29.721c-0.015-0.020-0.030-0.038-0.044-0.057-0.052-0.069-0.093-0.135-0.121-0.2s-0.043-0.132-0.043-0.201c0-0.106 0.022-0.197 0.066-0.273s0.106-0.135 0.186-0.176c0.080-0.042 0.173-0.063 0.28-0.063 0.103 0 0.192 0.021 0.266 0.063 0.075 0.041 0.133 0.095 0.173 0.163s0.061 0.142 0.061 0.223c0 0.064-0.012 0.123-0.035 0.176s-0.055 0.101-0.096 0.145c-0.041 0.044-0.088 0.085-0.142 0.124l-0.141 0.103 0.402 0.475c0.013-0.026 0.025-0.053 0.036-0.082 0.034-0.089 0.052-0.188 0.052-0.297h0.29c0 0.099-0.010 0.192-0.029 0.28s-0.049 0.17-0.091 0.245c-0.017 0.031-0.036 0.061-0.058 0.090l0.298 0.351h-0.389l-0.118-0.139c-0.064 0.049-0.133 0.086-0.208 0.114-0.099 0.035-0.204 0.053-0.315 0.053-0.135 0-0.252-0.025-0.35-0.074s-0.175-0.117-0.229-0.204c-0.053-0.087-0.080-0.186-0.080-0.297 0-0.083 0.017-0.155 0.052-0.218s0.081-0.122 0.141-0.176c0.055-0.050 0.118-0.1 0.188-0.15zM27.871 29.925l-0.042 0.031c-0.049 0.040-0.086 0.079-0.11 0.116s-0.039 0.070-0.046 0.1c-0.008 0.031-0.011 0.058-0.011 0.081 0 0.059 0.013 0.113 0.038 0.162s0.064 0.087 0.113 0.116c0.050 0.028 0.111 0.042 0.183 0.042 0.077 0 0.152-0.017 0.225-0.052 0.036-0.018 0.071-0.039 0.103-0.064l-0.452-0.532zM27.951 29.554l0.125-0.084c0.059-0.039 0.1-0.077 0.126-0.114s0.038-0.086 0.038-0.142c0-0.048-0.019-0.093-0.056-0.134s-0.090-0.061-0.158-0.061c-0.047 0-0.087 0.011-0.12 0.034s-0.057 0.050-0.074 0.087c-0.016 0.035-0.024 0.075-0.024 0.119 0 0.042 0.011 0.085 0.032 0.13s0.051 0.090 0.088 0.138c0.008 0.010 0.015 0.020 0.023 0.029zM31.505 30.15h-0.349c-0.010 0.088-0.032 0.163-0.064 0.225s-0.079 0.106-0.141 0.138c-0.061 0.032-0.142 0.047-0.241 0.047-0.082 0-0.152-0.016-0.211-0.049s-0.107-0.079-0.145-0.138c-0.037-0.059-0.065-0.131-0.084-0.213s-0.026-0.177-0.026-0.279v-0.172c0-0.108 0.010-0.204 0.029-0.287s0.051-0.156 0.091-0.213c0.040-0.058 0.090-0.101 0.149-0.131s0.129-0.045 0.209-0.045c0.098 0 0.177 0.017 0.237 0.050s0.106 0.080 0.137 0.142c0.032 0.062 0.052 0.137 0.061 0.225h0.349c-0.014-0.136-0.052-0.256-0.114-0.361s-0.148-0.187-0.259-0.247c-0.112-0.060-0.248-0.089-0.41-0.089-0.127 0-0.242 0.022-0.345 0.067s-0.188 0.109-0.261 0.194c-0.073 0.084-0.128 0.185-0.167 0.303s-0.057 0.25-0.057 0.396v0.169c0 0.146 0.019 0.278 0.056 0.396s0.093 0.219 0.165 0.303c0.072 0.083 0.158 0.147 0.258 0.192s0.213 0.067 0.339 0.067c0.164 0 0.303-0.030 0.417-0.089s0.203-0.141 0.266-0.244c0.063-0.104 0.1-0.223 0.112-0.356zM33.443 29.851v-0.112c0-0.153-0.020-0.291-0.061-0.412s-0.097-0.226-0.172-0.311c-0.074-0.087-0.163-0.152-0.266-0.197s-0.218-0.068-0.343-0.068c-0.125 0-0.239 0.023-0.342 0.068s-0.191 0.11-0.266 0.197c-0.074 0.086-0.132 0.189-0.173 0.311s-0.061 0.258-0.061 0.412v0.112c0 0.154 0.020 0.291 0.061 0.413s0.1 0.226 0.176 0.311c0.075 0.086 0.164 0.151 0.266 0.197s0.217 0.067 0.342 0.067c0.126 0 0.24-0.022 0.343-0.067s0.192-0.111 0.265-0.197c0.074-0.086 0.132-0.189 0.172-0.311s0.060-0.259 0.060-0.413zM33.092 29.737v0.114c0 0.113-0.011 0.214-0.033 0.301s-0.053 0.161-0.095 0.222c-0.042 0.059-0.093 0.105-0.153 0.135s-0.13 0.045-0.208 0.045c-0.077 0-0.146-0.015-0.206-0.045s-0.113-0.076-0.156-0.135c-0.043-0.060-0.075-0.134-0.098-0.222s-0.033-0.188-0.033-0.301v-0.114c0-0.113 0.011-0.213 0.033-0.3s0.054-0.16 0.096-0.219c0.043-0.059 0.094-0.104 0.155-0.134s0.129-0.046 0.206-0.046 0.147 0.015 0.208 0.046c0.061 0.030 0.113 0.074 0.155 0.134s0.075 0.132 0.096 0.219c0.022 0.087 0.033 0.186 0.033 0.3z"></path>
</symbol>
<symbol id="icon-twitter1" viewBox="0 0 32 32">
<title>twitter1</title>
<path fill="#f4f4fd" style="fill: var(--color4, #f4f4fd)" d="M32 6.078c-1.19 0.522-2.458 0.868-3.78 1.036 1.36-0.812 2.398-2.088 2.886-3.626-1.268 0.756-2.668 1.29-4.16 1.588-1.204-1.282-2.92-2.076-4.792-2.076-3.632 0-6.556 2.948-6.556 6.562 0 0.52 0.044 1.020 0.152 1.496-5.454-0.266-10.28-2.88-13.522-6.862-0.566 0.982-0.898 2.106-0.898 3.316 0 2.272 1.17 4.286 2.914 5.452-1.054-0.020-2.088-0.326-2.964-0.808 0 0.020 0 0.046 0 0.072 0 3.188 2.274 5.836 5.256 6.446-0.534 0.146-1.116 0.216-1.72 0.216-0.42 0-0.844-0.024-1.242-0.112 0.85 2.598 3.262 4.508 6.13 4.57-2.232 1.746-5.066 2.798-8.134 2.798-0.538 0-1.054-0.024-1.57-0.090 2.906 1.874 6.35 2.944 10.064 2.944 12.072 0 18.672-10 18.672-18.668 0-0.29-0.010-0.57-0.024-0.848 1.302-0.924 2.396-2.078 3.288-3.406z"></path>
</symbol>
<symbol id="icon-Vector" viewBox="0 0 30 32">
<title>Vector</title>
<path fill="#8e8f99" style="fill: var(--color3, #8e8f99)" d="M29.67 12.883c-0.008-3.414-1.515-6.687-4.193-9.101s-6.307-3.774-10.094-3.782v0c-3.788 0.006-7.419 1.365-10.098 3.78s-4.187 5.688-4.195 9.103v18.828c0 0 28.575-2.869 28.579-18.825v-0.003z"></path>
</symbol>
<symbol id="icon-Vector2" viewBox="0 0 36 32">
<title>Vector2</title>
<path fill="#8e8f99" style="fill: var(--color3, #8e8f99)" d="M18.056 1.842h-0.010c-8.482 0-15.359 6.2-15.359 13.847v0.009c0 7.647 6.876 13.847 15.359 13.847h0.010c8.482 0 15.359-6.2 15.359-13.847v-0.009c0-7.647-6.876-13.847-15.359-13.847z"></path>
</symbol>
<symbol id="icon-Vector3" viewBox="0 0 29 32">
<title>Vector3</title>
<path fill="#8e8f99" style="fill: var(--color3, #8e8f99)" d="M0 19.447c0.010 3.326 1.479 6.513 4.087 8.865s6.143 3.678 9.831 3.688c3.688-0.010 7.222-1.335 9.83-3.686s4.078-5.538 4.089-8.863v-18.341c0 0-27.837 2.797-27.837 18.337zM13.918 22.733c-0.721 0-1.426-0.193-2.025-0.554s-1.067-0.874-1.342-1.475-0.348-1.261-0.207-1.899c0.141-0.637 0.488-1.223 0.998-1.683s1.159-0.772 1.866-0.899c0.707-0.127 1.44-0.062 2.106 0.187s1.235 0.67 1.636 1.21c0.4 0.54 0.614 1.176 0.614 1.826 0.002 0.433-0.091 0.861-0.273 1.261s-0.451 0.764-0.789 1.070c-0.339 0.306-0.741 0.55-1.184 0.716s-0.918 0.251-1.398 0.251v-0.012z"></path>
</symbol>
</defs>
</svg>
